<svg xmlns="http://www.w3.org/2000/svg" viewBox="0 0 500 500" style="enable-background:new 0 0 500 500" xml:space="preserve"><path style="fill:#ebebeb" d="M0 382.398h500v.25H0zM416.779 398.494h33.122v.25h-33.122zM322.527 401.208h8.693v.25h-8.693zM396.586 389.208h19.192v.25h-19.192zM52.459 390.888h43.193v.25H52.459zM104.556 390.888h6.333v.25h-6.333zM131.471 395.111h93.676v.25h-93.676zM237.014 337.8H43.915a5.715 5.715 0 0 1-5.708-5.708V60.66a5.715 5.715 0 0 1 5.708-5.708h193.099a5.715 5.715 0 0 1 5.707 5.708v271.432a5.715 5.715 0 0 1-5.707 5.708zM43.915 55.203a5.464 5.464 0 0 0-5.458 5.458v271.432a5.464 5.464 0 0 0 5.458 5.458h193.099a5.463 5.463 0 0 0 5.457-5.458V60.66a5.464 5.464 0 0 0-5.457-5.458H43.915zM453.31 337.8H260.212a5.714 5.714 0 0 1-5.707-5.708V60.66a5.715 5.715 0 0 1 5.707-5.708H453.31a5.714 5.714 0 0 1 5.708 5.708v271.432a5.714 5.714 0 0 1-5.708 5.708zM260.212 55.203a5.463 5.463 0 0 0-5.457 5.458v271.432a5.463 5.463 0 0 0 5.457 5.458H453.31a5.464 5.464 0 0 0 5.458-5.458V60.66a5.464 5.464 0 0 0-5.458-5.458H260.212z"/><path transform="rotate(-180 358.581 128.945)" style="fill:#e6e6e6" d="M289.691 83.832h137.781v90.227H289.691z"/><path transform="rotate(-180 355.497 128.945)" style="fill:#f0f0f0" d="M285.487 83.832h140.02v90.227h-140.02z"/><path transform="rotate(-180 358.581 182.912)" style="fill:#e6e6e6" d="M289.691 174.059h137.781v17.708H289.691z"/><path transform="rotate(-180 348.493 182.912)" style="fill:#f0f0f0" d="M278.483 174.059h140.02v17.708h-140.02z"/><path transform="rotate(90 355.497 128.945)" style="fill:#fafafa" d="M316.269 64.82h78.456v128.249h-78.456z"/><path style="fill:#fff" d="m390.702 168.174-16.38-78.456h-25.561l16.38 78.456z"/><path style="fill:#f0f0f0" d="M416.897 162.315a.42.42 0 0 0 .421-.42V93.547a.42.42 0 0 0-.842 0v68.348c0 .232.189.42.421.42z"/><path style="fill:#fff" d="m359.65 168.174-16.38-78.456h-9.966l16.381 78.456z"/><path transform="rotate(90 291.746 128.945)" style="fill:#e6e6e6" d="M252.518 128.571h78.456v.747h-78.456z"/><path style="opacity:.6;fill:#ebebeb" d="M284.095 98.591h137.781l.541-6.586H284.636zM284.095 109.393h137.781l.541-6.586H284.636zM284.095 120.195h137.781l.541-6.586H284.636zM284.095 130.997h137.781l.541-6.586H284.636zM284.095 141.799h137.781l.541-6.586H284.636zM284.095 152.601h137.781l.541-6.586H284.636z"/><path style="fill:#e6e6e6" d="M378.799 316.781h28.889v5.696h-28.889z"/><path transform="rotate(-180 326.974 316.866)" style="fill:#e6e6e6" d="M324.307 251.333h5.333v131.065h-5.333z"/><path transform="rotate(-180 342.317 319.63)" style="fill:#f5f5f5" d="M305.836 316.781h72.963v5.696h-72.963z"/><path style="fill:#e6e6e6" d="M378.799 347.948h28.889v5.696h-28.889z"/><path transform="rotate(-180 342.317 350.796)" style="fill:#f5f5f5" d="M305.836 347.948h72.963v5.696h-72.963z"/><path style="fill:#e6e6e6" d="M378.799 254.448h28.889v5.696h-28.889z"/><path transform="rotate(-180 342.317 257.296)" style="fill:#f5f5f5" d="M305.836 254.448h72.963v5.696h-72.963z"/><path style="fill:#e6e6e6" d="M378.799 285.615h28.889v5.696h-28.889z"/><path transform="rotate(-180 342.317 288.462)" style="fill:#f5f5f5" d="M305.836 285.615h72.963v5.696h-72.963z"/><path transform="rotate(-180 399.938 316.866)" style="fill:#e6e6e6" d="M397.271 251.333h5.333v131.065h-5.333z"/><path transform="rotate(-180 376.132 316.866)" style="fill:#f5f5f5" d="M373.466 251.333h5.333v131.065h-5.333z"/><path transform="rotate(-180 308.502 316.866)" style="fill:#f5f5f5" d="M305.836 251.333h5.333v131.065h-5.333z"/><path transform="rotate(-180 92.663 329.453)" style="fill:#e6e6e6" d="M65.374 276.507h54.578v105.892H65.374z"/><path style="fill:#fafafa" d="M79.948 382.399H65.374v-14.618h29.854z"/><path transform="rotate(-180 241.472 329.453)" style="fill:#e6e6e6" d="M214.184 276.507h54.578v105.892h-54.578z"/><path transform="rotate(-180 146.138 326.937)" style="fill:#fafafa" d="M65.374 276.507h161.529v100.861H65.374z"/><path style="fill:#fafafa" d="M212.329 382.399h14.574v-14.618h-29.855z"/><path transform="rotate(-180 146.138 326.711)" style="fill:#f0f0f0" d="M76.68 314.091h138.917v25.241H76.68z"/><path transform="rotate(-180 146.138 357.347)" style="fill:#f0f0f0" d="M76.68 344.727h138.917v25.241H76.68z"/><path style="fill:#fafafa" d="M103.084 316.79h86.108a4.577 4.577 0 0 0 4.576-4.577v-.308h-95.26v.308a4.577 4.577 0 0 0 4.576 4.577z"/><path transform="rotate(-180 146.138 296.076)" style="fill:#f0f0f0" d="M76.68 283.455h138.917v25.241H76.68z"/><path style="fill:#fafafa" d="M103.084 286.154h86.108a4.577 4.577 0 0 0 4.576-4.577v-.308h-95.26v.308a4.577 4.577 0 0 0 4.576 4.577zM103.084 347.425h86.108a4.576 4.576 0 0 0 4.576-4.576v-.308h-95.26v.308a4.576 4.576 0 0 0 4.576 4.576z"/><path transform="rotate(-180 142.959 128.945)" style="fill:#e6e6e6" d="M74.068 83.832h137.781v90.227H74.068z"/><path transform="rotate(-180 139.874 128.945)" style="fill:#f0f0f0" d="M69.864 83.832h140.02v90.227H69.864z"/><path transform="rotate(-180 142.959 182.912)" style="fill:#e6e6e6" d="M74.068 174.059h137.781v17.708H74.068z"/><path transform="rotate(-180 132.87 182.912)" style="fill:#f0f0f0" d="M62.861 174.059h140.02v17.708H62.861z"/><path transform="rotate(90 139.874 128.945)" style="fill:#fafafa" d="M100.647 64.82h78.456v128.249h-78.456z"/><path style="fill:#fff" d="m175.08 168.174-16.381-78.456h-25.561l16.381 78.456z"/><path style="fill:#f0f0f0" d="M201.274 162.315a.42.42 0 0 0 .42-.42V93.547a.42.42 0 1 0-.841 0v68.348c.001.232.189.42.421.42z"/><path style="fill:#fff" d="m144.028 168.174-16.381-78.456h-9.965l16.381 78.456z"/><path transform="rotate(90 76.123 128.945)" style="fill:#e6e6e6" d="M36.896 128.571h78.456v.747H36.896z"/><path style="opacity:.6;fill:#ebebeb" d="M68.472 98.591h137.781l.542-6.586H69.014z"/><path style="opacity:.6;fill:#ebebeb" d="M68.472 102.307h137.781l.542-6.587H69.014z"/><path style="opacity:.6;fill:#ebebeb" d="M68.472 106.022h137.781l.542-6.586H69.014z"/><path style="opacity:.6;fill:#ebebeb" d="M68.472 109.738h137.781l.542-6.587H69.014z"/><path style="opacity:.6;fill:#ebebeb" d="M68.472 113.453h137.781l.542-6.586H69.014z"/><path style="opacity:.6;fill:#ebebeb" d="M68.472 117.168h137.781l.542-6.586H69.014z"/><path transform="rotate(-180 98.395 246.725)" style="fill:#f5f5f5" d="M96.013 220.179h4.763v53.092h-4.763z"/><path transform="rotate(-180 97.3 246.688)" style="fill:#fafafa" d="M96.627 220.142h1.345v53.092h-1.345z"/><path transform="rotate(-180 98.8 246.688)" style="fill:#fafafa" d="M98.536 220.142h.527v53.092h-.527z"/><path style="fill:#f0f0f0" d="M80.763 276.507h35.264a4.443 4.443 0 0 0-4.443-4.443H85.206a4.443 4.443 0 0 0-4.443 4.443zM89.835 253.138c.754 0 1.37-.617 1.37-1.37v-34.81c0-.753-.617-1.37-1.37-1.37-.754 0-1.37.617-1.37 1.37v34.81c0 .754.616 1.37 1.37 1.37z"/><path style="fill:#e0e0e0" d="M77.074 232.799h42.642L114.811 203H81.979z"/><ellipse style="fill:#f5f5f5" cx="250" cy="416.238" rx="193.889" ry="11.323"/><path transform="rotate(-4.133 104.28 211.746)" style="fill:#407bff" d="M103.782 202.372h1v18.489h-1z"/><path transform="rotate(-4.133 105.774 233.707)" style="fill:#407bff" d="M105.382 230.351h1v6.955h-1z"/><path style="fill:#407bff" d="M337.711 315.161H123.553c-4.844 0-9.092-3.963-9.441-8.807l-10.523-146.13c-.349-4.844 3.329-8.807 8.173-8.807H325.92c4.844 0 9.092 3.963 9.441 8.807l10.523 146.13c.348 4.844-3.329 8.807-8.173 8.807z"/><path style="fill:#407bff" d="M338.532 315.161H124.374c-4.844 0-9.092-3.963-9.441-8.807l-10.523-146.13c-.349-4.844 3.329-8.807 8.173-8.807h214.158c4.844 0 9.092 3.963 9.441 8.807l10.523 146.13c.348 4.844-3.329 8.807-8.173 8.807z"/><path style="opacity:.5;fill:#fff" d="M338.532 315.161H124.374c-4.844 0-9.092-3.963-9.441-8.807l-10.523-146.13c-.349-4.844 3.329-8.807 8.173-8.807h214.158c4.844 0 9.092 3.963 9.441 8.807l10.523 146.13c.348 4.844-3.329 8.807-8.173 8.807z"/><path style="fill:#407bff" d="M327.058 155.821H112.9c-.242 0-.481.01-.717.029-5.474.451-4.356 8.778 1.169 8.778h214.523c5.525 0 5.444-8.327-.095-8.778a9.113 9.113 0 0 0-.722-.029z"/><path style="fill:#fafafa" d="M118.478 160.225c.08 1.115-.758 2.019-1.874 2.019-1.115 0-2.084-.904-2.164-2.019-.08-1.115.758-2.019 1.874-2.019s2.084.903 2.164 2.019zM125.346 160.225c.08 1.115-.758 2.019-1.874 2.019-1.115 0-2.084-.904-2.164-2.019-.08-1.115.758-2.019 1.874-2.019 1.115 0 2.084.903 2.164 2.019zM132.214 160.225a1.854 1.854 0 0 1-1.874 2.019c-1.115 0-2.084-.904-2.165-2.019-.08-1.115.759-2.019 1.874-2.019s2.084.903 2.165 2.019z"/><path style="fill:#fff" d="M332.854 300.577H127.951c-1.763 0-3.296-1.43-3.423-3.193l-8.654-120.173c-.127-1.763 1.2-3.193 2.963-3.193H323.74c1.763 0 3.296 1.429 3.423 3.193l8.654 120.173c.127 1.763-1.2 3.193-2.963 3.193z"/><path style="fill:#fff" d="m246.53 254.798-3.335-46.319-10.108-6.084h-27.804l3.774 52.403z"/><path style="fill:#407bff" d="M246.53 255.283h-37.473a.484.484 0 0 1-.483-.45L204.8 202.43a.482.482 0 0 1 .484-.519h27.804c.088 0 .175.024.25.07l10.107 6.083a.483.483 0 0 1 .233.38l3.335 46.319a.482.482 0 0 1-.129.365.481.481 0 0 1-.354.155zm-37.022-.969h36.501l-3.28-45.549-9.776-5.885h-27.149l3.704 51.434z"/><path style="fill:#ebebeb" d="m243.195 208.479-10.108-6.084 3.711 8.06z"/><path style="fill:#407bff" d="M236.798 210.939a.486.486 0 0 1-.44-.282l-3.711-8.059a.484.484 0 0 1 .69-.618l10.107 6.084a.484.484 0 0 1-.107.878l-6.396 1.976a.5.5 0 0 1-.143.021zm-2.612-7.317 2.875 6.244 4.956-1.531-7.831-4.713zM220.969 226.005c.084 1.169-.795 2.117-1.965 2.117s-2.185-.948-2.269-2.117c-.084-1.169.795-2.117 1.964-2.117s2.186.948 2.27 2.117zM234.705 226.005c.084 1.169-.795 2.117-1.965 2.117-1.169 0-2.185-.948-2.27-2.117-.084-1.169.795-2.117 1.965-2.117 1.17.001 2.186.948 2.27 2.117zM238.58 239.735a.485.485 0 0 1-.483-.45c-.245-3.404-5.583-6.173-11.9-6.173-4.185 0-7.942 1.244-9.806 3.247-.829.891-1.212 1.851-1.14 2.856a.485.485 0 0 1-.967.069c-.091-1.266.392-2.506 1.397-3.586 2.041-2.194 6.07-3.556 10.516-3.556 6.929 0 12.581 3.107 12.867 7.072a.485.485 0 0 1-.449.518c-.012.003-.024.003-.035.003zM213.167 221.717a.485.485 0 0 1-.356-.814l2.124-2.288a.485.485 0 0 1 .711.659l-2.123 2.288a.485.485 0 0 1-.356.155zM237.584 221.717a.486.486 0 0 1-.331-.13l-2.453-2.288a.485.485 0 0 1 .661-.709l2.453 2.288a.485.485 0 0 1-.33.839zM202.257 265.153h2.26l3.261 4.334-.312-4.334h2.281l.564 7.833h-2.282l-3.243-4.301.31 4.301h-2.276l-.563-7.833zM211.334 269.074c-.092-1.279.192-2.274.854-2.987.661-.712 1.628-1.069 2.899-1.069 1.304 0 2.333.35 3.089 1.05.756.7 1.179 1.68 1.27 2.941.066.915-.034 1.666-.3 2.252a2.968 2.968 0 0 1-1.237 1.368c-.559.326-1.273.489-2.142.489-.883 0-1.625-.141-2.224-.422-.599-.281-1.1-.727-1.504-1.336-.404-.608-.639-1.37-.705-2.286zm2.421.011c.057.791.245 1.359.563 1.704.319.346.731.518 1.237.518.52 0 .91-.169 1.171-.508.261-.338.359-.946.296-1.822-.053-.737-.241-1.276-.563-1.616s-.738-.51-1.247-.51c-.488 0-.867.173-1.138.518-.27.347-.376.918-.319 1.716zM224.152 265.153h3.596c.709 0 1.288.096 1.739.288.45.192.831.468 1.142.828.311.36.548.778.71 1.256.163.477.263.983.302 1.517.06.837.012 1.486-.146 1.948a2.917 2.917 0 0 1-.71 1.159 2.354 2.354 0 0 1-1.045.622 5.42 5.42 0 0 1-1.427.214h-3.596l-.565-7.832zm2.548 1.774.308 4.28h.593c.506 0 .861-.056 1.067-.168.206-.112.359-.308.46-.588.101-.28.129-.733.084-1.36-.06-.83-.236-1.398-.529-1.704-.293-.306-.753-.459-1.38-.459h-.603zM237.448 271.692H234.7l-.289 1.293h-2.471l2.38-7.833h2.64l3.507 7.833h-2.535l-.484-1.293zm-.624-1.693-1.068-2.816-.653 2.816h1.721zM239.369 265.153h7.357l.139 1.934h-2.468l.425 5.899h-2.42l-.425-5.899h-2.468l-.14-1.934zM252.365 271.692h-2.748l-.289 1.293h-2.471l2.38-7.833h2.64l3.507 7.833h-2.535l-.484-1.293zm-.624-1.693-1.067-2.816-.653 2.816h1.72z"/><path style="fill:#ffb573" d="M353.688 173.08a94.287 94.287 0 0 0 2.944-1.568 77.29 77.29 0 0 0 2.983-1.724c1.959-1.206 3.934-2.398 5.808-3.722 3.782-2.605 7.325-5.496 10.513-8.653.418-.382.773-.806 1.159-1.21l.57-.612.286-.306.143-.153c.038-.04.029-.032.011-.008l-.032.049c-.142.267-.024.186.031-.072.067-.248.123-.653.141-1.091.064-1.816-.294-4.105-.729-6.318-.89-4.485-2.238-9.098-3.57-13.618l3.885-1.704c2.434 4.346 4.462 8.785 6.113 13.598.786 2.438 1.508 4.886 1.719 7.893.039.766.056 1.571-.083 2.51-.147.924-.38 2.03-1.223 3.284l-.167.231-.129.168-.154.188-.308.374-.617.75c-.417.494-.813 1.015-1.256 1.478-3.448 3.829-7.284 7.211-11.379 10.152-2.038 1.489-4.12 2.903-6.283 4.19a86.687 86.687 0 0 1-3.277 1.885 55.003 55.003 0 0 1-3.467 1.766l-3.632-7.757z"/><path style="fill:#407bff" d="M344.794 408.178c.774 0 1.62-.16 2.211-.3a.198.198 0 0 0 .064-.359c-.287-.189-2.83-1.83-3.805-1.389-.154.07-.347.223-.395.558-.063.444.048.798.329 1.054.357.326.952.436 1.596.436zm1.65-.583c-1.458.291-2.555.241-2.979-.146-.18-.164-.247-.395-.203-.706.023-.167.101-.222.165-.251.513-.232 1.98.476 3.017 1.103z"/><path style="fill:#407bff" d="M346.96 407.884a.2.2 0 0 0 .199-.199c0-.102-.011-2.514-.922-3.32a1.034 1.034 0 0 0-.84-.265c-.497.06-.631.373-.668.553-.189.944 1.334 2.751 2.133 3.204a.19.19 0 0 0 .098.027zm-1.425-3.396a.64.64 0 0 1 .439.174c.544.481.73 1.835.776 2.638-.797-.636-1.746-1.994-1.631-2.569.019-.094.073-.206.326-.237a.68.68 0 0 1 .09-.006z"/><path style="fill:#ffb573" d="M346.223 148.067c-.974 4.97-3.028 15.037.45 18.354 0 0-1.359 5.042-10.594 5.042-10.155 0-4.853-5.041-4.853-5.041 5.543-1.324 5.4-5.436 4.434-9.298l10.563-9.057z"/><path style="fill:#263238" d="M329.284 168.424c-1.594.216-.238-3.913.41-4.341 1.496-.989 20.851-2.389 20.725-.04-.08 1.011-.555 2.984-1.401 3.654-.847.67-5.819-1.355-19.734.727z"/><path style="fill:#263238" d="M332.437 167.034c-1.266.428-1.146-3.733-.715-4.234.998-1.158 16.664-5.183 17.129-2.906.179.983.265 2.947-.272 3.71-.537.762-5.14-.499-16.142 3.43zM326.61 139.108a.396.396 0 0 1-.331-.145c-1.12-1.37-2.576-1.23-2.59-1.228a.396.396 0 1 1-.085-.789c.077-.008 1.9-.185 3.29 1.514a.396.396 0 0 1-.284.648z"/><path style="fill:#ff5652" d="M324.672 144.001s-.856 3.007-1.975 4.527c.969.741 2.441.214 2.441.214l-.466-4.741z"/><path style="fill:#263238" d="M325.16 142.786c.066.672-.237 1.252-.676 1.296-.44.043-.849-.467-.916-1.139-.066-.672.237-1.252.676-1.296.44-.043.85.467.916 1.139z"/><path style="fill:#263238" d="m324.443 141.665-1.661-.307c0 .001.953 1.181 1.661.307z"/><path style="fill:#ffb573" d="M356.7 407.685h-8.376l.657-19.397h8.376z"/><path style="fill:#263238" d="M347.661 406.716h9.41c.342 0 .62.238.668.572l1.072 7.445c.111.772-.553 1.503-1.343 1.49-3.281-.056-4.862-.249-9-.249-2.546 0-6.266.264-9.781.264-3.439 0-3.703-3.477-2.239-3.791 6.564-1.412 7.601-3.359 9.813-5.216a2.185 2.185 0 0 1 1.4-.515z"/><path d="M357.359 388.293h-8.38l-.334 9.999h8.38z" style="opacity:.2"/><path style="fill:#ffb573" d="M323.374 178.044a164.252 164.252 0 0 1-15.05-6.754c-4.915-2.515-9.754-5.194-14.404-8.773a33.002 33.002 0 0 1-3.422-3.07c-.279-.3-.558-.578-.832-.922-.288-.362-.505-.575-.879-1.131a7.967 7.967 0 0 1-1.338-3.609 8.146 8.146 0 0 1 .491-3.621 10.923 10.923 0 0 1 1.407-2.607c1.051-1.464 2.216-2.546 3.389-3.52 2.343-1.939 4.821-3.349 7.303-4.667a49.454 49.454 0 0 1 3.784-1.797c1.286-.555 2.541-1.071 3.906-1.541l1.775 3.853c-4.362 2.749-8.88 5.771-12.202 9.159-.807.839-1.513 1.717-1.957 2.49-.476.787-.47 1.376-.389 1.331.041 0 .025-.018.141.098l.398.427c.15.179.361.362.55.546a25.62 25.62 0 0 0 2.699 2.169c1.985 1.413 4.172 2.735 6.434 3.97a133.921 133.921 0 0 0 6.935 3.587 292.732 292.732 0 0 0 14.392 6.413l-3.131 7.969z"/><path style="fill:#ffb573" d="m311.969 137.154 1.385-3.004-6.296-2.186s-1.961 5.903.376 8.627a6.047 6.047 0 0 0 4.535-3.437z"/><path style="fill:#ffb573" d="m313.354 127.656-5.033-1.451-1.263 5.758 6.296 2.187zM378.35 134.441l.734-7.02-6.488 1.525s-.095 6.58 3.337 7.629l2.417-2.134zM375.958 122.507l-4.227 1.974.864 4.465 6.488-1.525zM347.54 138.255c.305 8.307.612 11.817-3.142 16.466-5.646 6.992-15.917 5.55-18.698-2.499-2.503-7.245-2.582-19.613 5.178-23.695 7.645-4.02 16.357 1.42 16.662 9.728z"/><path style="fill:#263238" d="M343.921 154.705c8.155-3.524 13.519-10.955 11.255-22.574-2.166-11.116-9.671-12.214-12.771-9.908-3.1 2.306-10.827-1.131-15.464 2.771-8.035 6.761-.439 14.05 3.518 18.369 2.364 4.858 5.46 14.8 13.462 11.342z"/><path style="fill:#407bff" d="M340.535 130.137c2.752 3.985 8.03 5.11 11.79 2.513 3.76-2.596 4.577-7.931 1.825-11.916-2.752-3.985-8.03-5.11-11.79-2.513-3.76 2.596-4.577 7.931-1.825 11.916z"/><path style="fill:#263238" d="M342.652 123.002c-1.177-6.698 5.161-11.863 13.636-9.367 8.475 2.496 3.992 10.009 2.254 16.009s2.823 11.715 4.729 7.145c1.906-4.569-1.298-5.98-1.298-5.98s8.999 2.333.639 12.477c-8.36 10.145-15.928-1.057-13.881-7.668 1.654-5.342-4.966-6.285-6.079-12.616zM334.182 125.533c-3.869-2.018-10.421-3.65-14.15 2.623-1.763 2.966-1.08 6.989-1.08 6.989l11.389.758 3.841-10.37z"/><path style="fill:#263238" d="m317.612 133.178-.016-.001a.25.25 0 0 1-.234-.265c.01-.17.286-4.193 2.714-6.717 5.869-6.098 12.75-1.04 14.719.656a.25.25 0 1 1-.327.379c-1.885-1.623-8.467-6.47-14.032-.688-2.299 2.389-2.573 6.361-2.576 6.401a.249.249 0 0 1-.248.235z"/><path style="fill:#ffb573" d="M331.853 143.033c-.012 1.618-.737 3.202-1.655 4.277-1.382 1.616-2.966.82-3.329-.972-.327-1.613-.003-4.397 1.744-5.373 1.72-.961 3.254.218 3.24 2.068z"/><path style="fill:#263238" d="M330.053 219.122s.534 58.144 5.578 90.545c4.074 26.17 11.613 86.689 11.613 86.689h11.422s1.116-58.424-.952-84.308c-5.233-65.498 8.271-77.743-2.626-92.926h-25.035z"/><path style="opacity:.1;fill:#fff" d="M330.053 219.122s.534 58.144 5.578 90.545c4.074 26.17 11.613 86.689 11.613 86.689h11.422s1.116-58.424-.952-84.308c-5.233-65.498 8.271-77.743-2.626-92.926h-25.035z"/><path style="opacity:.3" d="M336.057 245.5c4.01 17.55.81 45.19-1.38 57.36-2.32-18.48-3.49-42.43-4.07-59.98 2.07-3.36 4.03-3.58 5.45 2.62z"/><path style="fill:#407bff" d="M345.681 396.582h14.549l.764-5.104-15.396-.521zM349.833 170.042c1.368-2.721 8.725-4.433 12.746-4.427l3.01 13.365s-8.012 11.89-11.343 10.629c-3.936-1.487-7.345-13.737-4.413-19.567z"/><path style="opacity:.4" d="M349.833 170.042c1.368-2.721 8.725-4.433 12.746-4.427l3.01 13.365s-8.012 11.89-11.343 10.629c-3.936-1.487-7.345-13.737-4.413-19.567z"/><path style="fill:#407bff" d="M341.353 393.313a.199.199 0 0 0-.199-.299c-.42.063-4.122.651-4.622 1.708a.639.639 0 0 0 .039.625c.204.341.493.533.858.57 1.213.125 2.965-1.558 3.901-2.572l.023-.032zm-4.441 1.537c.342-.561 2.256-1.078 3.717-1.347-1.319 1.341-2.481 2.088-3.161 2.018-.238-.025-.42-.149-.558-.379-.054-.09-.06-.167-.02-.251a.533.533 0 0 1 .022-.041z"/><path style="fill:#407bff" d="M341.353 393.313a.199.199 0 0 0-.019-.233c-.063-.073-1.546-1.782-2.913-1.871a1.437 1.437 0 0 0-1.09.37c-.411.368-.376.688-.273.891.433.858 3.093 1.157 4.166.934a.205.205 0 0 0 .129-.091zm-3.915-1.259a.831.831 0 0 1 .158-.18c.225-.202.487-.29.799-.269.898.059 1.919.988 2.383 1.461-1.185.1-3.106-.26-3.366-.775-.015-.031-.054-.107.026-.237z"/><path style="fill:#ffb573" d="m350.083 389.765-7.661 3.403-3.414-7.105-4.461-9.304-.523-1.082 7.652-3.408.592 1.218 4.325 9.01z"/><path style="opacity:.2" d="m346.593 382.497-7.585 3.566-4.461-9.304 7.721-3.272z"/><path style="fill:#263238" d="M321.069 219.122s-24.474 60.835-17.84 89.482c5.995 25.89 32.504 74.921 32.504 74.921l10.25-5.145s-16.388-59.188-18.166-72.046c-3.459-25.018 18.776-60.333 18.776-87.212h-25.524z"/><path style="opacity:.1;fill:#fff" d="M321.069 219.122s-24.474 60.835-17.84 89.482c5.995 25.89 32.504 74.921 32.504 74.921l10.25-5.145s-16.388-59.188-18.166-72.046c-3.459-25.018 18.776-60.333 18.776-87.212h-25.524z"/><path style="fill:#263238" d="m341.055 392.103 7.608-5.538a.662.662 0 0 1 .877.069l5.248 5.389c.544.559.437 1.541-.209 1.995-2.686 1.885-4.078 2.66-7.423 5.095-2.059 1.498-6.161 4.811-9.003 6.88-2.78 2.023-5.04-.632-4.041-1.748 4.477-5.004 5.42-8.099 6.115-10.902.125-.505.423-.945.828-1.24z"/><path style="fill:#407bff" d="m335.073 385.694 13.231-6.052-1.698-5.391-14.168 6.462zM327.564 169.36c-1.098-2.841-10.657-5.957-15.452-7.045l-2.107 15.768s7.831 11.255 11.27 10.324c4.06-1.099 8.641-12.96 6.289-19.047z"/><path style="opacity:.4" d="M327.564 169.36c-1.098-2.841-10.657-5.957-15.452-7.045l-2.107 15.768s7.831 11.255 11.27 10.324c4.06-1.099 8.641-12.96 6.289-19.047z"/><path style="fill:#407bff" d="M317.066 168.567s-3.99 1.405 4.003 50.555h34.019c-.571-13.846-.587-22.383 6.03-50.798 0 0-7.128-1.551-14.446-1.903-5.725-.276-10.415-.459-15.448.001-6.633.605-14.158 2.145-14.158 2.145z"/><path style="opacity:.4" d="M317.066 168.567s-3.99 1.405 4.003 50.555h34.019c-.571-13.846-.587-22.383 6.03-50.798 0 0-7.128-1.551-14.446-1.903-5.725-.276-10.415-.459-15.448.001-6.633.605-14.158 2.145-14.158 2.145z"/><path style="fill:#407bff" d="m355.598 217.125 1.534 3.045c.119.236-.161.477-.554.477h-35.677c-.307 0-.561-.15-.58-.343l-.307-3.045c-.021-.211.245-.39.58-.39h34.45c.253.001.477.104.554.256z"/><path style="opacity:.3;fill:#fff" d="m355.598 217.125 1.534 3.045c.119.236-.161.477-.554.477h-35.677c-.307 0-.561-.15-.58-.343l-.307-3.045c-.021-.211.245-.39.58-.39h34.45c.253.001.477.104.554.256z"/><path style="fill:#263238" d="M350.971 220.977h.923c.184 0 .324-.095.311-.21l-.433-3.956c-.013-.116-.173-.21-.357-.21h-.923c-.184 0-.324.095-.311.21l.433 3.956c.013.116.174.21.357.21zM328.608 220.977h.923c.184 0 .324-.095.311-.21l-.433-3.956c-.013-.116-.173-.21-.357-.21h-.923c-.184 0-.324.095-.311.21l.433 3.956c.012.116.173.21.357.21z"/></svg>